<?xml version="1.0" standalone="no"?>
<!DOCTYPE svg PUBLIC "-//W3C//DTD SVG 20010904//EN"
 "http://www.w3.org/TR/2001/REC-SVG-20010904/DTD/svg10.dtd">
<svg version="1.0" xmlns="http://www.w3.org/2000/svg"
 width="149.000000pt" height="60.000000pt" viewBox="0 0 149.000000 60.000000"
 preserveAspectRatio="xMidYMid meet">
<metadata>
Created by potrace 1.16, written by Peter Selinger 2001-2019
</metadata>
<g transform="translate(0.000000,60.000000) scale(0.100000,-0.100000)"
fill="#000000" stroke="none">
<path d="M0 300 l0 -300 745 0 745 0 0 300 0 300 -745 0 -745 0 0 -300z m1000
260 c0 -5 -7 -27 -16 -49 -10 -26 -20 -38 -29 -34 -8 2 -20 1 -27 -4 -8 -4 48
-10 132 -13 l145 -5 5 -75 5 -75 83 -3 c64 -2 82 -6 82 -17 0 -12 -17 -15 -85
-15 l-85 0 0 -70 0 -70 -306 0 -305 0 -60 -56 c-48 -47 -60 -54 -65 -40 -4 12
4 28 25 50 17 17 31 35 31 39 0 4 -58 7 -130 7 l-129 0 -3 68 -3 67 -83 5
c-45 3 -82 10 -82 15 0 6 37 12 82 15 l83 5 3 78 3 77 296 0 c291 0 297 0 320
22 13 12 23 29 23 39 0 10 15 23 38 32 44 19 52 20 52 7z"/>
<path d="M304 407 c-2 -7 -3 -62 -2 -123 l3 -109 138 -3 138 -3 43 43 c77 79
76 72 15 134 l-53 54 29 0 c21 0 41 -12 70 -40 l41 -40 49 50 49 50 -257 0
c-204 0 -259 -3 -263 -13z m212 -30 c37 -32 28 -72 -23 -93 l-36 -15 39 -40
c36 -37 37 -39 15 -39 -14 0 -42 17 -67 40 -27 25 -53 40 -69 40 -15 0 -25 6
-25 14 0 10 18 15 60 18 68 5 91 19 74 46 -8 12 -29 19 -69 22 -88 8 -85 30 4
30 59 0 74 -4 97 -23z"/>
<path d="M760 295 l-125 -125 268 0 267 0 0 125 0 125 -143 0 -142 0 -125
-125z m309 91 c56 -30 78 -98 45 -144 -32 -46 -110 -69 -175 -52 -154 42 -119
210 44 210 32 0 71 -7 86 -14z"/>
<path d="M922 354 c-35 -24 -46 -51 -32 -84 18 -44 74 -65 131 -50 51 14 80
65 60 104 -25 45 -113 62 -159 30z"/>
</g>
</svg>
