<?xml version="1.0" encoding="UTF-8" standalone="no"?>
<svg
   version="1.0"
   width="267.000000pt"
   height="123.000000pt"
   viewBox="0 0 267.000000 123.000000"
   preserveAspectRatio="xMidYMid meet"
   id="svg12"
   sodipodi:docname="614650e5708a514179291f3d1aed3b12.svg"
   xmlns:inkscape="http://www.inkscape.org/namespaces/inkscape"
   xmlns:sodipodi="http://sodipodi.sourceforge.net/DTD/sodipodi-0.dtd"
   xmlns="http://www.w3.org/2000/svg"
   xmlns:svg="http://www.w3.org/2000/svg">
  <defs
     id="defs16" />
  <sodipodi:namedview
     id="namedview14"
     pagecolor="#ffffff"
     bordercolor="#666666"
     borderopacity="1.0"
     inkscape:pageshadow="2"
     inkscape:pageopacity="0.0"
     inkscape:pagecheckerboard="0"
     inkscape:document-units="pt" />
  <metadata
     id="metadata2">
Created by potrace 1.16, written by Peter Selinger 2001-2019
</metadata>
  <g
     transform="translate(0.000000,123.000000) scale(0.100000,-0.100000)"
     fill="#000000"
     stroke="none"
     id="g10">
    <path
       d="M1755 1099 c-49 -21 -92 -39 -94 -39 -2 0 0 -12 4 -27 5 -22 -1 -34 -47 -80 l-52 -53 -598 0 -598 0 0 -150 0 -150 -119 0 c-145 0 -211 -8 -218 -27 -11 -27 21 -33 180 -33 l157 0 0 -145 0 -145 272 0 271 0 -71 -74 c-40 -41 -72 -80 -72 -88 0 -18 20 -38 38 -38 8 0 61 45 117 100 l101 100 622 0 622 0 0 145 0 145 158 0 c124 0 162 3 178 15 35 27 -3 35 -173 35 l-163 0 0 155 0 155 -297 0 -298 0 27 27 c24 23 30 25 52 15 22 -10 27 -9 36 8 13 25 70 172 70 182 0 12 -9 10 -105 -33z m-294 -297 c-29 -41 -159 -162 -174 -162 -7 0 -50 34 -95 75 -78 71 -85 75 -130 75 l-47 0 110 -110 110 -110 -120 -120 -120 -120 -277 0 -278 0 0 228 c0 125 3 237 6 250 l6 22 515 0 514 0 -20 -28z m723 -64 c3 -50 6 -162 6 -250 l0 -158 -542 0 -543 0 246 244 c209 209 251 245 280 249 19 2 149 5 290 5 l256 2 7 -92z"
       id="path4" />
    <path
       d="M543 774 c-12 -32 25 -44 128 -44 82 0 100 -3 123 -21 15 -12 26 -30 26 -44 0 -40 -39 -57 -163 -69 -92 -9 -112 -14 -115 -28 -2 -12 5 -19 22 -23 14 -3 36 -7 49 -10 12 -2 63 -41 112 -85 91 -82 113 -94 158 -88 25 3 23 7 -49 85 l-76 83 44 19 c24 10 58 30 76 45 27 23 32 35 32 71 0 91 -69 125 -252 125 -92 0 -110 -3 -115 -16z"
       id="path6" />
    <path
       d="M1680 770 c-127 -60 -180 -160 -136 -263 48 -115 248 -180 390 -127 160 61 221 209 128 312 -61 67 -120 91 -237 95 -85 3 -107 1 -145 -17z m246 -58 c134 -69 131 -196 -6 -268 -55 -29 -163 -26 -220 6 -63 35 -96 101 -80 159 29 110 188 163 306 103z"
       id="path8" />
  </g>
</svg>
